<?xml version="1.0" encoding="utf-8"?>
<!-- Generator: Adobe Illustrator 18.1.1, SVG Export Plug-In . SVG Version: 6.00 Build 0)  -->
<svg preserveAspectRatio="xMinYMid" version="1.1" id="Layer_1" xmlns="http://www.w3.org/2000/svg" xmlns:xlink="http://www.w3.org/1999/xlink" x="0px" y="0px"
	 viewBox="0 0 12 7" enable-background="new 0 0 12 7" xml:space="preserve">
<g>
	<path fill="#424247" d="M6,7C5.7,7,5.5,6.9,5.3,6.7l-5-5c-0.4-0.4-0.4-1,0-1.4s1-0.4,1.4,0L6,4.6l4.3-4.3c0.4-0.4,1-0.4,1.4,0
		s0.4,1,0,1.4l-5,5C6.5,6.9,6.3,7,6,7z"/>
</g>
<g>
	<path fill="#30AF3F" d="M-25.7,10.4c-0.3,0-0.5-0.1-0.7-0.3l-4.8-4.8c-0.4-0.4-0.4-1,0-1.4s1-0.4,1.4,0l4.1,4.1l4.1-4.1
		c0.4-0.4,1-0.4,1.4,0s0.4,1,0,1.4l-4.8,4.8C-25.1,10.3-25.4,10.4-25.7,10.4z"/>
</g>
<g>
	<path fill="#CCCFD4" d="M27,24.4c-0.3,0-0.5-0.1-0.7-0.3l-4.8-4.8c-0.4-0.4-0.4-1,0-1.4s1-0.4,1.4,0L27,22l4.1-4.1
		c0.4-0.4,1-0.4,1.4,0s0.4,1,0,1.4l-4.8,4.8C27.5,24.3,27.3,24.4,27,24.4z"/>
</g>
</svg>
